# xmcd CD database file
#
# Track frame offsets:
#	150
#	30802
#	57100
#	80080
#	99540
#	118795
#	143140
#	165612
#	197577
#
# Disc length: 2813 seconds
#
# Revision: 0
# Processed by: cddbd v1.5.2PL0 Copyright (c) Steve Scherf et al.
# Submitted via: CDex 1.70beta2
#
DISCID=6e0afb09
DTITLE=Coleman Hawkins - Coleman Hawkins encounters Ben Webster
DYEAR=1957
DGENRE=Jazz
TTITLE0=Blues for Yolande
TTITLE1=It Never Entered My Mind
TTITLE2=La Rosita
TTITLE3=You'd Be So Nice to Come To
TTITLE4=Prisoner of Love
TTITLE5=Tangerine
TTITLE6=Shine On Harvest Moon
TTITLE7=Blues for Yolande - monaural
TTITLE8=Blues for Yolande (preliminary takes)
EXTD=YEAR: 1957
EXTT0=
EXTT1=
EXTT2=
EXTT3=
EXTT4=
EXTT5=
EXTT6=
EXTT7=
EXTT8=
PLAYORDER=
